<svg width="50" height="50" viewBox="0 0 50 50" fill="none" xmlns="http://www.w3.org/2000/svg">
<path d="M31.4885 7.14711C27.228 16.5155 20.0646 13.0701 16.2468 6.18387C15.451 4.7484 13.7615 3.9541 12.2206 4.51913L2.80911 7.96999C1.25647 8.5393 0.457342 10.2577 1.02249 11.8118L3.22771 17.8762C3.65757 19.0583 4.9506 19.6831 6.14389 19.2854C7.84853 18.7172 9.52482 20.2175 9.14833 21.9745L6.11373 36.1359C5.77243 37.7287 6.76445 39.3028 8.34857 39.6821L36.8892 46.5157C38.8985 46.9968 40.7814 45.3502 40.5723 43.2947L38.4259 22.1879C38.2174 20.1373 40.0912 18.4921 42.0976 18.9641L43.7963 19.3638C45.322 19.7228 46.8669 18.8468 47.3422 17.3532L49.0376 12.0246C49.5601 10.3825 48.595 8.6387 46.926 8.20953L35.2381 5.20408C33.7003 4.80865 32.1458 5.70176 31.4885 7.14711Z" fill="#C3FE19"/>
</svg>
